<svg xmlns="http://www.w3.org/2000/svg" width="156.023" height="40.682" viewBox="0 0 156.023 40.682"><g transform="translate(-84.753 -239.658)"><path d="M235.019,278.825h-4.052l-5.988-20.384h3.9l2.45,9.224q1.089,3.9,1.785,7.44h.061q.483-2.631,1.784-7.41l2.571-9.254h3.841Z" transform="translate(-109.483 -14.665)" fill="#fff"/><path d="M411.044,284.5h3.675l1.386,6.658q.542,2.5.873,4.7h.06q.3-1.747,1.085-4.67l1.808-6.688h2.832l1.687,6.537q.814,3.254,1.085,4.82h.09a41.463,41.463,0,0,1,.874-4.82l1.476-6.537h3.495l-4.338,14.672h-3.223l-1.657-6q-.542-2.079-.994-4.64h-.06a39.243,39.243,0,0,1-1.054,4.67l-1.747,5.965h-3.224Z" transform="translate(-254.756 -35.008)" fill="#fff"/><path d="M521.5,277.256l.711-2.934a8.722,8.722,0,0,0,4.327,1.126,3.894,3.894,0,0,0,2.534-.741,2.468,2.468,0,0,0,.9-2.015,2.554,2.554,0,0,0-.756-1.882,8.419,8.419,0,0,0-2.5-1.526q-4.92-2.074-4.92-5.72a5.2,5.2,0,0,1,1.823-4.09,7.124,7.124,0,0,1,4.875-1.6,9.154,9.154,0,0,1,4.238.889l-.771,2.875a7.563,7.563,0,0,0-3.527-.859,3.371,3.371,0,0,0-2.311.711,2.189,2.189,0,0,0-.8,1.689,2.3,2.3,0,0,0,.771,1.793,11.174,11.174,0,0,0,2.756,1.586,9.136,9.136,0,0,1,3.527,2.489,5.28,5.28,0,0,1,1.126,3.379,5.476,5.476,0,0,1-1.882,4.282,7.643,7.643,0,0,1-5.26,1.675,11.811,11.811,0,0,1-2.756-.326A6.984,6.984,0,0,1,521.5,277.256Z" transform="translate(-340.994 -14.222)" fill="#fff"/><path d="M588.8,302.733V286.946q0-2.139-.121-4.79h3.133l.181,2.139h.06a5.147,5.147,0,0,1,8.481-.347,8.652,8.652,0,0,1,1.582,5.408,8.433,8.433,0,0,1-1.778,5.754,5.507,5.507,0,0,1-4.278,2.018,3.931,3.931,0,0,1-3.645-1.838h-.06v7.442Zm3.555-14.551v2.742a4.239,4.239,0,0,0,.12,1.085,3.058,3.058,0,0,0,1.04,1.7,2.69,2.69,0,0,0,1.732.618,2.722,2.722,0,0,0,2.425-1.341,6.42,6.42,0,0,0,.858-3.51,6.232,6.232,0,0,0-.843-3.419,2.72,2.72,0,0,0-4.158-.6,3.236,3.236,0,0,0-1.055,1.762A5.154,5.154,0,0,0,592.356,288.181Z" transform="translate(-393.448 -32.969)" fill="#fff"/><path d="M674.123,283.934a6.168,6.168,0,0,0-4.82-2.049,6.534,6.534,0,0,0-4.956,2.049A7.9,7.9,0,0,0,662.4,289.6a7.762,7.762,0,0,0,1.883,5.513,6.315,6.315,0,0,0,4.835,2.018,6.742,6.742,0,0,0,2.441-.452,7.211,7.211,0,0,0,2.184-1.341,6.159,6.159,0,0,0,1.612-2.425,9.611,9.611,0,0,0,.6-3.525A7.861,7.861,0,0,0,674.123,283.934Zm-2.651,9.129a2.541,2.541,0,0,1-2.259,1.446,2.586,2.586,0,0,1-2.32-1.431,6.93,6.93,0,0,1-.843-3.57,7.444,7.444,0,0,1,.783-3.51,2.537,2.537,0,0,1,2.38-1.491A2.486,2.486,0,0,1,671.547,286a7.494,7.494,0,0,1,.768,3.479A7.016,7.016,0,0,1,671.472,293.062Z" transform="translate(-451.009 -32.969)" fill="#fff"/><g transform="translate(84.753 239.658)"><path d="M93.711,240.74a.54.54,0,0,0,.3-.712.594.594,0,0,0-.734-.337,13.262,13.262,0,0,0-8.517,10.018.574.574,0,0,0,.436.67.532.532,0,0,0,.554-.158.488.488,0,0,0,.11-.235,12.2,12.2,0,0,1,7.846-9.245Z" transform="translate(-84.753 -239.658)" fill="#fd481b"/><path d="M114.5,260.336a11.386,11.386,0,0,0-.723-2.421,10.571,10.571,0,0,0-3.045-4.083,6.154,6.154,0,0,0-9.869,6.5H99.137a7.917,7.917,0,0,1,9.849-9.4,7.675,7.675,0,0,1,2.857,1.583,11.885,11.885,0,0,1,2.676,3.228.566.566,0,0,0,.762.233.533.533,0,0,0,.2-.746,13.318,13.318,0,0,0-2.939-3.536A8.931,8.931,0,0,0,98,260.336H96.3a10.217,10.217,0,0,1,.06-3.925,10.975,10.975,0,0,1,6.629-7.794,10.5,10.5,0,0,1,4.976-.631.469.469,0,0,0,.458-.168.546.546,0,0,0,.126-.307.589.589,0,0,0-.526-.618,11.443,11.443,0,0,0-5.493.692,12.023,12.023,0,0,0-7.27,8.549,11.339,11.339,0,0,0-.1,4.2h-.014a10.47,10.47,0,0,0,20.894,0Zm-6.312,1.688a2.293,2.293,0,1,1-.284-4.464,1.091,1.091,0,0,0,1.732,1.327,2.319,2.319,0,0,1,.11.292A2.293,2.293,0,0,1,108.188,262.025Zm3.529-1.688h-.324a3.881,3.881,0,1,0-7.693,0h-1.678a5.08,5.08,0,0,1,8.006-5.674,9.331,9.331,0,0,1,2.7,3.621,10.633,10.633,0,0,1,.626,2.053Z" transform="translate(-92.764 -245.247)" fill="#fd481b"/></g><path d="M347.325,292.045c.088,2.576,2.108,3.688,4.391,3.688a10.712,10.712,0,0,0,3.952-.644l.527,2.488a13.428,13.428,0,0,1-4.977.878c-4.625,0-7.348-2.84-7.348-7.2,0-3.952,2.4-7.67,6.967-7.67,4.625,0,6.148,3.806,6.148,6.938a8.842,8.842,0,0,1-.117,1.522Zm6.265-2.518c.029-1.317-.556-3.483-2.957-3.483-2.225,0-3.162,2.02-3.308,3.483Z" transform="translate(-202.31 -34.297)" fill="#fff"/><path d="M736.8,266.493v4.069h3.425v2.694H736.8v6.294c0,1.727.468,2.634,1.844,2.634a5.319,5.319,0,0,0,1.405-.176l.058,2.752a7.908,7.908,0,0,1-2.605.351,4.169,4.169,0,0,1-3.1-1.171,5.681,5.681,0,0,1-1.112-3.982v-6.7h-2.049v-2.694h2.049v-3.22Z" transform="translate(-504.755 -20.952)" fill="#fff"/><rect width="3.609" height="14.492" transform="translate(134.675 249.668)" fill="#fff"/><circle cx="2.057" cy="2.057" r="2.057" transform="translate(134.423 243.652)" fill="#fd481b"/><path d="M777.735,256.889a2.625,2.625,0,1,1-2.616-2.54A2.569,2.569,0,0,1,777.735,256.889Zm-4.521.015a1.9,1.9,0,1,0,1.905-1.966A1.911,1.911,0,0,0,773.214,256.9Zm1.542,1.255h-.665v-2.434a6.767,6.767,0,0,1,1.013-.076,1.584,1.584,0,0,1,.907.182.6.6,0,0,1,.272.529c0,.257-.227.469-.544.56v.03a.744.744,0,0,1,.469.62,2.225,2.225,0,0,0,.182.59h-.741a1.709,1.709,0,0,1-.181-.56.392.392,0,0,0-.454-.363h-.257Zm.015-1.391h.257c.287,0,.5-.106.5-.317s-.166-.333-.469-.333c-.121,0-.212.015-.287.015Z" transform="translate(-536.959 -11.47)" fill="#fff"/><g transform="translate(196.833 272.405)"><path d="M596.334,395.047a4.433,4.433,0,0,0,1.927.479c.8,0,1.22-.331,1.22-.832,0-.479-.365-.752-1.288-1.083-1.277-.444-2.109-1.151-2.109-2.269,0-1.311,1.095-2.314,2.907-2.314a4.708,4.708,0,0,1,1.961.388l-.387,1.4a3.654,3.654,0,0,0-1.608-.365c-.752,0-1.117.342-1.117.741,0,.49.433.707,1.425,1.083,1.357.5,2,1.209,2,2.292,0,1.288-.992,2.383-3.1,2.383a5.028,5.028,0,0,1-2.177-.467Z" transform="translate(-595.981 -389.027)" fill="#fd481b"/><path d="M624.824,391.058h-2.063V389.6h5.905v1.459h-2.1v6.225h-1.744Z" transform="translate(-616.89 -389.474)" fill="#fd481b"/><path d="M655.6,389.6v4.424c0,1.322.5,2,1.391,2,.912,0,1.414-.638,1.414-2V389.6h1.733v4.31c0,2.371-1.2,3.5-3.2,3.5-1.938,0-3.078-1.072-3.078-3.523V389.6Z" transform="translate(-641.168 -389.474)" fill="#fd481b"/><path d="M689.372,389.5a15.511,15.511,0,0,1,2.348-.16,4.944,4.944,0,0,1,3.147.821,3.4,3.4,0,0,1,1.3,2.9,3.9,3.9,0,0,1-1.277,3.112,5.515,5.515,0,0,1-3.545.992,15.045,15.045,0,0,1-1.972-.114Zm1.744,6.27a3.2,3.2,0,0,0,.6.034,2.382,2.382,0,0,0,2.6-2.69,2.2,2.2,0,0,0-2.417-2.44,3.615,3.615,0,0,0-.787.068Z" transform="translate(-668.897 -389.271)" fill="#fd481b"/><path d="M727.308,389.6v7.684h-1.744V389.6Z" transform="translate(-697.155 -389.474)" fill="#fd481b"/><path d="M746.159,392.915c0,2.519-1.528,4.047-3.774,4.047-2.28,0-3.614-1.721-3.614-3.91a3.72,3.72,0,0,1,3.739-4.025A3.582,3.582,0,0,1,746.159,392.915Zm-5.552.1c0,1.505.707,2.565,1.87,2.565s1.847-1.117,1.847-2.611c0-1.379-.661-2.565-1.858-2.565C741.29,390.406,740.606,391.524,740.606,393.017Z" transform="translate(-707.466 -389.027)" fill="#fd481b"/></g></g></svg>